<?xml version="1.0" encoding="UTF-8"?>
<svg id="Layer_2" data-name="Layer 2" xmlns="http://www.w3.org/2000/svg" viewBox="0 0 234 90">
  <defs>
    <style>
      .cls-1 {
        fill: #231f20;
        stroke-width: 0px;
      }
    </style>
  </defs>
  <g id="Layer_1-2" data-name="Layer 1">
    <path class="cls-1" d="m207,9v45.85s9,8.15,9,8.15V9s0-9,0-9l-9,9Z"/>
    <path class="cls-1" d="m33.77,61.05l-9.58-5.3c-1.37-.76-3.05.25-3.02,1.82l.2,10.95c.03,1.57,1.74,2.52,3.09,1.71l9.38-5.64c1.34-.81,1.31-2.77-.06-3.53Z"/>
    <path class="cls-1" d="m75.48,82.33c-9.14,0-16.79-6.48-18.6-15.09-.26-1.26-.41-2.57-.41-3.91s.13-2.54.38-3.75c1.75-8.69,9.43-15.25,18.63-15.25,7.84,0,14.59,4.78,17.49,11.58h8.12c-3.21-11.11-13.46-19.24-25.61-19.24-13.46,0-24.58,9.96-26.4,22.91-.18,1.22-.27,2.48-.27,3.75s.1,2.64.29,3.91c1.89,12.88,12.98,22.76,26.38,22.76,11.85,0,21.89-7.73,25.36-18.42h-8.24c-3.08,6.36-9.6,10.75-17.12,10.75Z"/>
    <path class="cls-1" d="m209.1,45.44c-4.86-5.31-11.85-8.64-19.61-8.64-14.69,0-26.6,11.91-26.6,26.6s11.91,26.6,26.6,26.6c7.76,0,14.75-3.33,19.61-8.64,3.92-4.28,6.45-9.84,6.9-15.98v-3.98c-.44-6.13-2.98-11.69-6.9-15.96Zm-19.61,36.89c-10.44,0-18.94-8.49-18.94-18.93s8.5-18.93,18.94-18.93,18.93,8.49,18.93,18.93-8.49,18.93-18.93,18.93Z"/>
    <polyline class="cls-1" points="216 18 234 45 234 27 216 0"/>
    <rect class="cls-1" x="121.67" y="59.28" width="18" height="9" rx="4" ry="4"/>
    <rect class="cls-1" x="108" y="36" width="9" height="54" rx="4" ry="4"/>
    <rect class="cls-1" x="144" y="36" width="9" height="54" rx="4" ry="4"/>
    <polygon class="cls-1" points="45 45 0 45 9 36 36 36 45 45"/>
    <polygon class="cls-1" points="36 90 9 90 0 81 45 81 36 90"/>
    <rect class="cls-1" y="45" width="9" height="36"/>
  </g>
</svg>